<svg width="24" height="24" viewBox="0 0 24 24" fill="none" xmlns="http://www.w3.org/2000/svg">
<g clip-path="url(#clip0_125_154)">
<path d="M20.0156 0.4375H3.98438C1.78387 0.4375 0 2.22137 0 4.42188V19.8531C0 22.0536 1.78387 23.8375 3.98438 23.8375H20.0156C22.2161 23.8375 24 22.0536 24 19.8531V4.42188C24 2.22137 22.2161 0.4375 20.0156 0.4375Z" fill="#001E36"/>
<path d="M12.6033 16.9758H6.25992C6.15248 16.9758 6.09886 16.9168 6.09895 16.7986V6.5753C6.09613 6.55562 6.09793 6.53555 6.10421 6.51668C6.11049 6.49782 6.12108 6.48068 6.13514 6.46662C6.14919 6.45255 6.16633 6.44195 6.18518 6.43566C6.20404 6.42937 6.22411 6.42755 6.24379 6.43036H8.20804C8.22335 6.4282 8.23896 6.42963 8.25362 6.43454C8.26828 6.43944 8.2816 6.44769 8.29253 6.45863C8.30346 6.46957 8.3117 6.48289 8.31659 6.49756C8.32149 6.51223 8.3229 6.52783 8.32073 6.54314V14.9474H12.9414C13.0379 14.9474 13.0755 14.9956 13.0542 15.0922L12.7643 16.831C12.7636 16.8547 12.7574 16.878 12.7463 16.8989C12.7351 16.9199 12.7192 16.9379 12.6999 16.9517C12.67 16.9673 12.637 16.9755 12.6033 16.9759V16.9758ZM14.1971 8.97408H15.952C16.0499 8.97502 16.1354 9.04064 16.1612 9.13514C16.1996 9.20566 16.2268 9.28168 16.2419 9.36052C16.2643 9.46411 16.2803 9.56892 16.29 9.67448C16.3006 9.78717 16.306 9.90792 16.3062 10.0367C16.6071 9.6863 16.9701 9.3943 17.3768 9.17536C17.8337 8.9283 18.3467 8.80352 18.8661 8.81311C18.8858 8.8103 18.9059 8.81212 18.9247 8.81841C18.9436 8.8247 18.9607 8.8353 18.9748 8.84937C18.9888 8.86343 18.9994 8.88057 19.0057 8.89943C19.012 8.9183 19.0138 8.93837 19.0109 8.95805V10.9062C19.0109 10.9814 18.9573 11.0189 18.85 11.0189C18.2014 10.9787 17.5527 11.0946 16.9582 11.3569C16.7562 11.4443 16.573 11.5701 16.4189 11.7272V16.831C16.4189 16.9275 16.3759 16.9758 16.29 16.9758H14.3419C14.3201 16.979 14.2978 16.977 14.2768 16.97C14.2558 16.963 14.2368 16.9512 14.2212 16.9356C14.2055 16.92 14.1938 16.9009 14.1868 16.88C14.1798 16.859 14.1778 16.8367 14.1809 16.8149V11.2764C14.1809 11.1416 14.1801 11.0023 14.1783 10.8585L14.175 10.6397C14.1744 10.6027 14.1737 10.5654 14.1729 10.5278C14.1688 10.332 14.1632 10.1363 14.1562 9.94064L14.1487 9.74695C14.1416 9.52576 14.1201 9.30526 14.0844 9.08686C14.0806 9.07227 14.0805 9.05697 14.0839 9.0423C14.0874 9.02763 14.0944 9.01404 14.1044 9.0027C14.1143 8.99136 14.1269 8.98262 14.1409 8.97724C14.155 8.97186 14.1702 8.97 14.1852 8.97183L14.1971 8.97408Z" fill="#31A8FF"/>
</g>
<defs>
<clipPath id="clip0_125_154">
<rect width="24" height="23.4375" fill="white" transform="translate(0 0.4375)"/>
</clipPath>
</defs>
</svg>
