<svg width="24" height="24" viewBox="0 0 24 24" fill="none" xmlns="http://www.w3.org/2000/svg">
<g clip-path="url(#clip0_125_151)">
<path d="M20.0156 0H3.98438C1.78387 0 0 1.78387 0 3.98438V19.4156C0 21.6161 1.78387 23.4 3.98438 23.4H20.0156C22.2161 23.4 24 21.6161 24 19.4156V3.98438C24 1.78387 22.2161 0 20.0156 0Z" fill="#001E36"/>
<path d="M5.40234 16.4095V6.1216C5.40234 6.0466 5.43459 6.00891 5.499 6.00891L5.60091 6.00863L5.77509 6.00676L6.01716 6.00198L6.82809 5.98482L7.69762 5.96869C8.00344 5.96344 8.30663 5.96063 8.60719 5.96063C9.42281 5.96063 10.1097 6.06263 10.668 6.26654C11.1716 6.43688 11.6309 6.71737 12.0124 7.0876C12.3358 7.40853 12.5857 7.79582 12.7449 8.22273C12.8955 8.63815 12.9719 9.07684 12.9704 9.51873C12.9704 10.3776 12.7718 11.0859 12.3746 11.6439C11.9862 12.1883 11.4444 12.6046 10.8184 12.8398L10.7647 12.8595C10.1109 13.1034 9.387 13.1915 8.59303 13.197L8.46966 13.1974L8.28656 13.1964L8.19422 13.1951L8.09128 13.1927L8.02922 13.1903L7.99153 13.1883L7.89881 13.1849L7.78547 13.1826L7.61484 13.1814L7.57687 13.1813V16.3934C7.5797 16.4131 7.57789 16.4332 7.57161 16.4521C7.56532 16.4709 7.55473 16.4881 7.54066 16.5021C7.5266 16.5162 7.50945 16.5268 7.49058 16.5331C7.4717 16.5394 7.45163 16.5412 7.43194 16.5384H5.51512C5.43984 16.5384 5.40234 16.4956 5.40234 16.4095ZM7.57697 7.94091V11.2964C7.70546 11.3068 7.83431 11.3122 7.96322 11.3125H8.49459C8.86095 11.3113 9.22517 11.2568 9.57581 11.1506L9.64575 11.1288C9.96475 11.034 10.2498 10.8496 10.4669 10.5974C10.6687 10.3595 10.7732 10.0316 10.7804 9.61379L10.7809 9.56701C10.7893 9.25557 10.7083 8.94826 10.5473 8.68154C10.3782 8.42359 10.1336 8.22401 9.84703 8.10994C9.47278 7.96449 9.07301 7.89606 8.67169 7.90876L8.4675 7.90932L8.33869 7.91044L8.21578 7.91204L8.04234 7.91541L7.91578 7.91898L7.85006 7.92141L7.76222 7.92554L7.68741 7.93013L7.64475 7.93351L7.60791 7.93707L7.59169 7.93894L7.57697 7.94091ZM19.1954 10.6863C18.9145 10.542 18.6166 10.4335 18.3087 10.3636L18.2375 10.3482C17.8987 10.2705 17.5529 10.2277 17.2054 10.2204L17.1186 10.2194C16.9149 10.2139 16.7114 10.2383 16.5148 10.2919C16.3896 10.3197 16.2784 10.391 16.2007 10.4931C16.1483 10.5747 16.1204 10.6698 16.1203 10.7668C16.1233 10.861 16.1572 10.9515 16.2169 11.0244C16.3023 11.1243 16.405 11.208 16.5202 11.2716L16.555 11.29C16.7846 11.4136 17.0211 11.5238 17.2634 11.62C17.8037 11.8009 18.32 12.0469 18.8009 12.3526C19.1285 12.5594 19.3997 12.8443 19.5899 13.1818C19.7498 13.5013 19.8299 13.8549 19.8233 14.2121C19.833 14.684 19.6981 15.1475 19.4369 15.5405C19.1572 15.9394 18.7688 16.2495 18.3179 16.4339C17.8457 16.6415 17.2657 16.7486 16.5782 16.7557L16.5068 16.756C16.0805 16.7604 15.6549 16.7231 15.2359 16.6447L15.1462 16.6272C14.7935 16.5625 14.4501 16.4544 14.1239 16.3052C14.0911 16.2883 14.0634 16.263 14.0436 16.2318C14.0238 16.2007 14.0126 16.1649 14.0112 16.128V14.3732C14.0093 14.3562 14.012 14.3389 14.0191 14.3233C14.0262 14.3077 14.0374 14.2943 14.0515 14.2846C14.0654 14.2768 14.0812 14.2734 14.097 14.2748C14.1129 14.2763 14.1278 14.2825 14.14 14.2927C14.5252 14.5198 14.9435 14.6855 15.3797 14.7837C15.7642 14.8801 16.1586 14.9315 16.555 14.9367C16.9306 14.9367 17.207 14.8884 17.3842 14.7918C17.4642 14.7552 17.5318 14.6961 17.579 14.6218C17.6262 14.5475 17.6508 14.4612 17.6498 14.3732C17.6498 14.2339 17.5693 14.0996 17.4083 13.9707C17.3408 13.9167 17.244 13.8579 17.118 13.7945L17.0577 13.7649L16.9934 13.7346L16.9597 13.7192L16.889 13.6879C16.8767 13.6825 16.8644 13.6772 16.8521 13.6719L16.7753 13.6397L16.7352 13.6233L16.6522 13.59L16.609 13.5731L16.5197 13.5387L16.4262 13.5038C15.9207 13.3278 15.4413 13.0841 15.0013 12.7793C14.6866 12.5604 14.4275 12.2709 14.2447 11.934C14.0863 11.6168 14.0063 11.2662 14.0112 10.9117C14.0103 10.4857 14.1273 10.0678 14.3493 9.70416C14.6024 9.30385 14.9658 8.9851 15.3958 8.78654C15.868 8.55057 16.4583 8.43244 17.1667 8.43226C17.5817 8.42893 17.9962 8.45855 18.4065 8.52085C18.7036 8.55853 18.994 8.63708 19.2696 8.75429C19.3139 8.76704 19.3496 8.79976 19.3661 8.84288C19.3771 8.88216 19.3824 8.92276 19.3823 8.96363V10.5897C19.3846 10.6282 19.3661 10.665 19.334 10.6863C19.3124 10.697 19.2887 10.7026 19.2647 10.7026C19.2406 10.7026 19.2169 10.697 19.1954 10.6863Z" fill="#31A8FF"/>
</g>
<defs>
<clipPath id="clip0_125_151">
<rect width="24" height="23.4375" fill="white"/>
</clipPath>
</defs>
</svg>
