<svg width="40" height="40" viewBox="0 0 40 40" fill="none" xmlns="http://www.w3.org/2000/svg">
<g clip-path="url(#clip0_709_262)">
<path d="M22.056 0.00246066C23.5154 -0.00313949 24.9748 0.011528 26.4338 0.0464586L26.8218 0.0604578C27.2698 0.076457 27.7117 0.0964559 28.2457 0.120455C30.3736 0.22045 31.8255 0.556433 33.0995 1.05041C34.4194 1.55838 35.5313 2.24635 36.6433 3.35829C37.66 4.35745 38.4468 5.56607 38.9492 6.90011C39.4431 8.17404 39.7791 9.62797 39.8791 11.7559C39.9031 12.2878 39.9231 12.7318 39.9391 13.1798L39.9511 13.5678C39.9866 15.0261 40.002 16.4848 39.9971 17.9435L39.9991 19.4355V22.0553C40.004 23.5147 39.9887 24.9741 39.9531 26.4331L39.9411 26.8211C39.9251 27.2691 39.9051 27.711 39.8811 28.245C39.7811 30.3729 39.4411 31.8248 38.9492 33.0988C38.4485 34.4342 37.6614 35.6438 36.6433 36.6426C35.6433 37.6592 34.434 38.446 33.0995 38.9485C31.8255 39.4424 30.3736 39.7784 28.2457 39.8784C27.7117 39.9024 27.2698 39.9224 26.8218 39.9384L26.4338 39.9504C24.9748 39.986 23.5154 40.0013 22.056 39.9964L20.5641 39.9984H17.9462C16.4868 40.0033 15.0274 39.988 13.5685 39.9524L13.1805 39.9404C12.7057 39.9232 12.2311 39.9032 11.7566 39.8804C9.62866 39.7804 8.17673 39.4404 6.9008 38.9485C5.56624 38.4472 4.35741 37.6602 3.35898 36.6426C2.34112 35.6432 1.55352 34.4338 1.0511 33.0988C0.557126 31.8248 0.221143 30.3729 0.121148 28.245C0.0988746 27.7705 0.0788755 27.2958 0.0611508 26.8211L0.0511516 26.4331C0.0142806 24.9741 -0.00238697 23.5147 0.00115394 22.0553V17.9435C-0.0044277 16.4848 0.0102398 15.0261 0.0451518 13.5678L0.0591511 13.1798C0.0751502 12.7318 0.0951491 12.2878 0.119148 11.7559C0.219143 9.62597 0.555125 8.17604 1.0491 6.90011C1.55182 5.56542 2.34096 4.35713 3.36098 3.36029C4.35872 2.34184 5.56679 1.55353 6.9008 1.05041C8.17673 0.556433 9.62666 0.22045 11.7566 0.120455L13.1805 0.0604578L13.5685 0.0504585C15.0267 0.0136061 16.4855 -0.00306154 17.9442 0.000460912L22.056 0.00246066ZM20.0001 10.0019C18.6752 9.98321 17.3598 10.228 16.1303 10.722C14.9008 11.2161 13.7817 11.9496 12.8382 12.8799C11.8946 13.8102 11.1454 14.9188 10.634 16.1412C10.1226 17.3635 9.85923 18.6754 9.85923 20.0004C9.85923 21.3255 10.1226 22.6373 10.634 23.8597C11.1454 25.0821 11.8946 26.1907 12.8382 27.121C13.7817 28.0513 14.9008 28.7848 16.1303 29.2788C17.3598 29.7729 18.6752 30.0177 20.0001 29.9989C22.6522 29.9989 25.1956 28.9454 27.0708 27.0701C28.9461 25.1949 29.9996 22.6515 29.9996 19.9994C29.9996 17.3474 28.9461 14.804 27.0708 12.9287C25.1956 11.0535 22.6522 10.0019 20.0001 10.0019ZM20.0001 14.0017C20.7971 13.9871 21.589 14.1313 22.3296 14.4261C23.0702 14.7209 23.7446 15.1604 24.3135 15.7187C24.8823 16.2771 25.3342 16.9433 25.6427 17.6782C25.9512 18.4132 26.1102 19.2023 26.1103 19.9994C26.1105 20.7965 25.9518 21.5857 25.6435 22.3208C25.3352 23.0558 24.8836 23.7221 24.3149 24.2807C23.7462 24.8393 23.0719 25.2789 22.3315 25.574C21.591 25.869 20.7991 26.0135 20.0021 25.9991C18.4109 25.9991 16.8849 25.367 15.7597 24.2419C14.6345 23.1167 14.0024 21.5907 14.0024 19.9994C14.0024 18.4082 14.6345 16.8822 15.7597 15.757C16.8849 14.6318 18.4109 13.9997 20.0021 13.9997L20.0001 14.0017ZM30.4996 7.0021C29.8544 7.02792 29.2442 7.30239 28.7969 7.768C28.3495 8.23362 28.0997 8.85428 28.0997 9.49997C28.0997 10.1457 28.3495 10.7663 28.7969 11.2319C29.2442 11.6976 29.8544 11.972 30.4996 11.9978C31.1626 11.9978 31.7985 11.7345 32.2673 11.2656C32.7361 10.7968 32.9995 10.161 32.9995 9.49797C32.9995 8.83497 32.7361 8.19911 32.2673 7.7303C31.7985 7.26148 31.1626 6.9981 30.4996 6.9981V7.0021Z" fill="#C1995B"/>
</g>
<defs>
<clipPath id="clip0_709_262">
<rect width="40" height="40" fill="white"/>
</clipPath>
</defs>
</svg>
