<svg width="40" height="40" viewBox="0 0 40 40" fill="none" xmlns="http://www.w3.org/2000/svg">
<g clip-path="url(#clip0_709_258)">
<path fill-rule="evenodd" clip-rule="evenodd" d="M20 4C21.71 4 23.464 4.044 25.164 4.116L27.172 4.212L29.094 4.326L30.894 4.448L32.538 4.576C34.3221 4.71256 36.0009 5.47389 37.2791 6.72608C38.5572 7.97826 39.3529 9.64108 39.526 11.422L39.606 12.272L39.756 14.092C39.896 15.978 40 18.034 40 20C40 21.966 39.896 24.022 39.756 25.908L39.606 27.728C39.58 28.02 39.554 28.302 39.526 28.578C39.3528 30.3592 38.5569 32.0223 37.2783 33.2745C35.9997 34.5268 34.3205 35.2879 32.536 35.424L30.896 35.55L29.096 35.674L27.172 35.788L25.164 35.884C23.4437 35.9588 21.722 35.9974 20 36C18.278 35.9974 16.5563 35.9588 14.836 35.884L12.828 35.788L10.906 35.674L9.106 35.55L7.462 35.424C5.6779 35.2874 3.9991 34.5261 2.72095 33.2739C1.44279 32.0217 0.647149 30.3589 0.474 28.578L0.394 27.728L0.244 25.908C0.0910751 23.9423 0.00968804 21.9716 0 20C0 18.034 0.104 15.978 0.244 14.092L0.394 12.272C0.42 11.98 0.446 11.698 0.474 11.422C0.647081 9.6414 1.44243 7.97883 2.72018 6.72669C3.99793 5.47454 5.67626 4.71301 7.46 4.576L9.102 4.448L10.902 4.326L12.826 4.212L14.834 4.116C16.555 4.04127 18.2774 4.00259 20 4ZM16 15.15V24.85C16 25.774 17 26.35 17.8 25.89L26.2 21.04C26.3828 20.9348 26.5346 20.7832 26.6402 20.6007C26.7458 20.4181 26.8013 20.2109 26.8013 20C26.8013 19.7891 26.7458 19.5819 26.6402 19.3993C26.5346 19.2168 26.3828 19.0652 26.2 18.96L17.8 14.112C17.6175 14.0066 17.4105 13.9512 17.1998 13.9512C16.9891 13.9513 16.7821 14.0068 16.5997 14.1122C16.4172 14.2176 16.2657 14.3692 16.1605 14.5517C16.0552 14.7343 15.9999 14.9413 16 15.152V15.15Z" fill="#C1995B"/>
</g>
<defs>
<clipPath id="clip0_709_258">
<rect width="40" height="40" fill="white"/>
</clipPath>
</defs>
</svg>
